<mxfile host="Electron" modified="2024-05-10T07:23:12.849Z" agent="Mozilla/5.0 (Macintosh; Intel Mac OS X 10_15_7) AppleWebKit/537.36 (KHTML, like Gecko) draw.io/22.1.18 Chrome/120.0.6099.199 Electron/28.1.2 Safari/537.36" etag="hs2o7WDLsz_N05nnuDre" version="22.1.18" type="device">
  <diagram name="第 1 页" id="nNuZjRYyRh5vmxUFnaq4">
    <mxGraphModel dx="1012" dy="645" grid="0" gridSize="10" guides="1" tooltips="1" connect="1" arrows="1" fold="1" page="1" pageScale="1" pageWidth="1169" pageHeight="1654" math="0" shadow="0">
      <root>
        <mxCell id="0" />
        <mxCell id="1" parent="0" />
        <mxCell id="I0-z-BxgTcOIAmbcD6h4-1" value="" style="rounded=0;whiteSpace=wrap;html=1;fillColor=none;strokeColor=none;" parent="1" vertex="1">
          <mxGeometry x="106" y="143" width="739" height="130" as="geometry" />
        </mxCell>
        <mxCell id="DBWMiYDxB3cP8TI8gNXN-1" value="" style="rounded=0;whiteSpace=wrap;html=1;" parent="1" vertex="1">
          <mxGeometry x="132" y="181" width="687" height="61" as="geometry" />
        </mxCell>
        <mxCell id="DBWMiYDxB3cP8TI8gNXN-4" value="&lt;font style=&quot;font-size: 18px;&quot; face=&quot;Times New Roman&quot;&gt;&lt;b&gt;Worker 1&lt;/b&gt;&lt;br&gt;&lt;/font&gt;" style="text;html=1;strokeColor=none;fillColor=none;align=center;verticalAlign=middle;whiteSpace=wrap;rounded=0;" parent="1" vertex="1">
          <mxGeometry x="132" y="196" width="102" height="30" as="geometry" />
        </mxCell>
        <mxCell id="DBWMiYDxB3cP8TI8gNXN-5" value="" style="endArrow=none;html=1;rounded=0;entryX=0.137;entryY=0;entryDx=0;entryDy=0;entryPerimeter=0;" parent="1" edge="1">
          <mxGeometry width="50" height="50" relative="1" as="geometry">
            <mxPoint x="226" y="241" as="sourcePoint" />
            <mxPoint x="226.11899999999991" y="181" as="targetPoint" />
          </mxGeometry>
        </mxCell>
        <mxCell id="DBWMiYDxB3cP8TI8gNXN-6" value="&lt;font face=&quot;Times New Roman&quot;&gt;&lt;span&gt;Task 1&lt;/span&gt;&lt;/font&gt;" style="rounded=1;whiteSpace=wrap;html=1;fillColor=#f5f5f5;fontColor=#000000;strokeColor=#666666;fontStyle=1" parent="1" vertex="1">
          <mxGeometry x="231" y="196" width="53" height="30" as="geometry" />
        </mxCell>
        <mxCell id="DBWMiYDxB3cP8TI8gNXN-12" value="&lt;font face=&quot;Times New Roman&quot;&gt;&lt;span&gt;Task 2&lt;/span&gt;&lt;/font&gt;" style="rounded=1;whiteSpace=wrap;html=1;fillColor=#f5f5f5;fontColor=#000000;strokeColor=#666666;fontStyle=1" parent="1" vertex="1">
          <mxGeometry x="290" y="196" width="53" height="30" as="geometry" />
        </mxCell>
        <mxCell id="DBWMiYDxB3cP8TI8gNXN-13" value="&lt;font face=&quot;Times New Roman&quot;&gt;&lt;span&gt;Task 3&lt;/span&gt;&lt;/font&gt;" style="rounded=1;whiteSpace=wrap;html=1;fillColor=#f5f5f5;fontColor=#000000;strokeColor=#666666;fontStyle=1" parent="1" vertex="1">
          <mxGeometry x="349" y="196" width="53" height="30" as="geometry" />
        </mxCell>
        <mxCell id="DBWMiYDxB3cP8TI8gNXN-14" value="&lt;span style=&quot;border-color: var(--border-color); font-family: &amp;quot;Times New Roman&amp;quot;;&quot;&gt;Task&lt;/span&gt;&lt;font face=&quot;Times New Roman&quot;&gt;&lt;span&gt;&amp;nbsp;4&lt;/span&gt;&lt;/font&gt;" style="rounded=1;whiteSpace=wrap;html=1;fillColor=#f5f5f5;fontColor=#000000;strokeColor=#666666;fontStyle=1" parent="1" vertex="1">
          <mxGeometry x="408" y="196" width="53" height="30" as="geometry" />
        </mxCell>
        <mxCell id="DBWMiYDxB3cP8TI8gNXN-15" value="&lt;span style=&quot;border-color: var(--border-color); font-family: &amp;quot;Times New Roman&amp;quot;;&quot;&gt;Task&lt;/span&gt;&lt;font face=&quot;Times New Roman&quot;&gt;&lt;span&gt;&amp;nbsp;5&lt;/span&gt;&lt;/font&gt;" style="rounded=1;whiteSpace=wrap;html=1;fillColor=#f5f5f5;fontColor=#000000;strokeColor=#666666;fontStyle=1" parent="1" vertex="1">
          <mxGeometry x="467" y="196" width="53" height="30" as="geometry" />
        </mxCell>
        <mxCell id="DBWMiYDxB3cP8TI8gNXN-16" value="&lt;span style=&quot;border-color: var(--border-color); font-family: &amp;quot;Times New Roman&amp;quot;;&quot;&gt;Task&lt;/span&gt;&lt;font face=&quot;Times New Roman&quot;&gt;&lt;span&gt;&amp;nbsp;6&lt;/span&gt;&lt;/font&gt;" style="rounded=1;whiteSpace=wrap;html=1;fillColor=#f5f5f5;fontColor=#000000;strokeColor=#666666;fontStyle=1" parent="1" vertex="1">
          <mxGeometry x="526" y="196" width="53" height="30" as="geometry" />
        </mxCell>
        <mxCell id="DBWMiYDxB3cP8TI8gNXN-17" value="&lt;span style=&quot;border-color: var(--border-color); font-family: &amp;quot;Times New Roman&amp;quot;;&quot;&gt;Task&lt;/span&gt;&lt;font face=&quot;Times New Roman&quot;&gt;&lt;span&gt;&amp;nbsp;7&lt;/span&gt;&lt;/font&gt;" style="rounded=1;whiteSpace=wrap;html=1;fillColor=#f5f5f5;fontColor=#000000;strokeColor=#666666;fontStyle=1" parent="1" vertex="1">
          <mxGeometry x="585" y="196" width="53" height="30" as="geometry" />
        </mxCell>
        <mxCell id="DBWMiYDxB3cP8TI8gNXN-18" value="&lt;span style=&quot;border-color: var(--border-color); font-family: &amp;quot;Times New Roman&amp;quot;;&quot;&gt;Task&lt;/span&gt;&lt;font face=&quot;Times New Roman&quot;&gt;&lt;span&gt;&amp;nbsp;8&lt;/span&gt;&lt;/font&gt;" style="rounded=1;whiteSpace=wrap;html=1;fillColor=#f5f5f5;fontColor=#000000;strokeColor=#666666;fontStyle=1" parent="1" vertex="1">
          <mxGeometry x="644" y="196" width="53" height="30" as="geometry" />
        </mxCell>
        <mxCell id="DBWMiYDxB3cP8TI8gNXN-19" value="&lt;span style=&quot;border-color: var(--border-color); font-family: &amp;quot;Times New Roman&amp;quot;;&quot;&gt;Task&lt;/span&gt;&lt;font face=&quot;Times New Roman&quot;&gt;&lt;span&gt;&amp;nbsp;9&lt;/span&gt;&lt;/font&gt;" style="rounded=1;whiteSpace=wrap;html=1;fillColor=#f5f5f5;fontColor=#000000;strokeColor=#666666;fontStyle=1" parent="1" vertex="1">
          <mxGeometry x="703" y="196" width="53" height="30" as="geometry" />
        </mxCell>
        <mxCell id="DBWMiYDxB3cP8TI8gNXN-20" value="&lt;span style=&quot;border-color: var(--border-color); font-family: &amp;quot;Times New Roman&amp;quot;;&quot;&gt;Task&lt;/span&gt;&lt;font face=&quot;Times New Roman&quot;&gt;&lt;span&gt;&amp;nbsp;10&lt;/span&gt;&lt;/font&gt;" style="rounded=1;whiteSpace=wrap;html=1;fillColor=#f5f5f5;fontColor=#000000;strokeColor=#666666;fontStyle=1" parent="1" vertex="1">
          <mxGeometry x="762" y="196" width="53" height="30" as="geometry" />
        </mxCell>
        <mxCell id="P03oHu3Lh3_eRUI-p7ww-1" value="Time" style="text;html=1;strokeColor=none;fillColor=none;align=center;verticalAlign=middle;whiteSpace=wrap;rounded=0;fontFamily=Times New Roman;fontSize=20;horizontal=1;" parent="1" vertex="1">
          <mxGeometry x="454.5" y="131" width="60" height="30" as="geometry" />
        </mxCell>
        <mxCell id="P03oHu3Lh3_eRUI-p7ww-2" value="" style="endArrow=classic;html=1;rounded=0;fontSize=24;fontFamily=Times New Roman;" parent="1" edge="1">
          <mxGeometry width="50" height="50" relative="1" as="geometry">
            <mxPoint x="337.5" y="165" as="sourcePoint" />
            <mxPoint x="649.5" y="165" as="targetPoint" />
          </mxGeometry>
        </mxCell>
      </root>
    </mxGraphModel>
  </diagram>
</mxfile>
